<?xml version="1.0" encoding="UTF-8" standalone="no"?>
<!DOCTYPE svg PUBLIC "-//W3C//DTD SVG 1.1//EN" "http://www.w3.org/Graphics/SVG/1.1/DTD/svg11.dtd">
<!-- Created with Vectornator (http://vectornator.io/) -->
<svg height="100%" stroke-miterlimit="10" style="fill-rule:nonzero;clip-rule:evenodd;stroke-linecap:round;stroke-linejoin:round;" version="1.1" viewBox="0 0 120 120" width="100%" xml:space="preserve" xmlns="http://www.w3.org/2000/svg" xmlns:vectornator="http://vectornator.io" xmlns:xlink="http://www.w3.org/1999/xlink">
<defs/>
<g id="Untitled" vectornator:layerName="Untitled">
<path d="M49.3 0.999998C28.2 4.8 10.3 20.6 2.9 42C-0.3 51.3-0.3 68.7 2.9 78C6.3 87.8 10.7 94.8 17.9 102.1C25.2 109.3 32.2 113.7 42 117.1C47.3 118.9 50.7 119.3 60 119.3C72.7 119.3 79.6 117.6 90 111.7C97.1 107.7 107.7 97.1 111.7 90C117.6 79.6 119.3 72.7 119.3 60C119.3 47.3 117.6 40.4 111.7 30C107.7 22.9 97.1 12.3 90 8.3C78.2 1.6 62.1-1.3 49.3 0.999998ZM60.5 22L99 22L99 48.2C99 68 99.4 75.9 100.5 80C101.3 83 101.7 85.6 101.5 85.9C101.2 86.1 101 85.8 101 85C101 84.1 100.7 84 99.6 84.9C98.5 85.8 97.9 85.3 96.6 82C95.7 79.8 95 77.3 95 76.5C95 75.5 94 75 92 75C89.5 75 89 74.6 89 72.5C89 70.5 89.5 70 91.5 70L94 70L94 48L94 26L60 26L26 26L26 58.2C26 76 25.7 91.5 25.4 92.7C24.9 94.4 25.3 94.9 27.2 95.3C28.7 95.6 28.3 95.8 25.8 95.9L22 96L22 59L22 22L60.5 22M51.0188 36L60 36L79 36L79 40L79 44L60 44L41 44L41 40L41 36L51.0188 36M79 54.5L79 59L60 59L41 59L41 54.5L41 50L60 50L79 50L79 54.5ZM45.9 82.2C45.8 90.8 46.1 94.5 46.9 94.4C47.5 94.3 49.4 94.2 51 94.1L54 94L54 82L54 70L60 70L66 70L66 73C66 75.8 66.2 76 70 76C73.8 76 74 75.8 74 73C74 70 74.1 70 79.4 70L84.8 70L86.9 78.9C88.1 83.8 89 88.5 89 89.4C89 90.3 89.6 91 90.3 91C91 91.1 90.8 91.6 89.7 92.4C87.9 93.8 87.9 93.8 89.7 94.3C90.9 94.6 90.6 94.8 88.8 94.9C86.2 95 86.1 94.7 83.8 85C82.1 77.4 81.1 75 79.9 75C78.7 75 78.4 75.7 78.8 77.5L79.2 80L70.1 80C61.1 80 61 80 61 77.5C61 76.1 60.6 75 60 75C59.4 75 59 79.5 59 86.6L59 98.1L49.9 97.9L40.9 97.6L41.2 86.3C41.4 77.8 41.2 75 40.3 75C39.3 75 39 78.1 38.9 86.7C38.9 93.2 38.6 97.9 38.3 97.2C38.1 96.6 36.6 96 35.2 95.9C33.7 95.9 33 95.6 33.6 95.4C34.5 95 34.6 91.3 34.2 82.5L33.7 70L39.9 70L46.1 70L45.9 82.2Z" fill="#3e68ff" fill-rule="nonzero" opacity="1" stroke="none"/>
</g>
</svg>
