<svg width="60" height="60" viewBox="0 0 60 60" fill="none" xmlns="http://www.w3.org/2000/svg">
<path d="M60 30C60 29.34 59.9775 28.6875 59.9362 28.0388L56.1937 28.2788C56.2678 29.4251 56.2678 30.575 56.1937 31.7213L59.9362 31.9613C59.9786 31.3084 59.9998 30.6543 60 30H60ZM59.43 24.15C59.1712 22.8525 58.83 21.585 58.4175 20.355L54.8625 21.5588C55.23 22.635 55.5262 23.7413 55.7512 24.8738L59.4262 24.15L59.43 24.15ZM58.4137 39.645C58.8342 38.4049 59.1724 37.1384 59.4262 35.8538L55.7512 35.1263C55.5262 36.2588 55.2262 37.365 54.8625 38.4413L58.4137 39.645V39.645ZM54.945 46.6688C55.6735 45.5804 56.3299 44.4454 56.91 43.2713L53.55 41.61C53.04 42.6413 52.4625 43.635 51.8287 44.5838L54.945 46.6688V46.6688ZM56.91 16.725C56.3287 15.5475 55.6725 14.415 54.945 13.3313L51.8325 15.4163C52.4687 16.3694 53.0424 17.3627 53.55 18.39L56.91 16.725ZM52.5562 10.2188C51.6937 9.23627 50.7637 8.30627 49.7813 7.44377L47.3062 10.2638C48.1687 11.0213 48.9787 11.8313 49.7362 12.6938L52.5562 10.2188ZM49.7812 52.5563C50.7654 51.6924 51.6924 50.7654 52.5562 49.7813L49.7362 47.3063C48.9787 48.1688 48.1687 48.9825 47.3062 49.7363L49.7812 52.5563ZM43.275 56.91C44.448 56.3299 45.5817 55.6735 46.6687 54.945L44.5837 51.8325C43.635 52.4663 42.6412 53.04 41.61 53.55L43.2712 56.91L43.275 56.91ZM46.6687 5.05502C45.585 4.32752 44.4525 3.66752 43.2712 3.09002L41.61 6.45002C42.6413 6.96002 43.635 7.53752 44.5837 8.17127L46.6687 5.05502V5.05502ZM39.645 1.58627C38.4049 1.16582 37.1384 0.827587 35.8537 0.573768L35.1263 4.24877C36.2588 4.47377 37.365 4.77377 38.4412 5.13752L39.645 1.58627V1.58627ZM35.85 59.43C37.1359 59.1764 38.4037 58.8381 39.645 58.4175L38.4412 54.8625C37.365 55.23 36.2587 55.5263 35.1262 55.7513L35.8537 59.4263L35.85 59.43ZM31.9612 0.0637683C30.6551 -0.0206068 29.3449 -0.0206068 28.0388 0.0637681L28.2788 3.80627C29.4251 3.73218 30.5749 3.73218 31.7213 3.80627L31.9612 0.0637683V0.0637683ZM30 60C30.6543 59.9999 31.3084 59.9786 31.9612 59.9363L31.7212 56.1938C30.5749 56.2679 29.4251 56.2679 28.2787 56.1938L28.0387 59.9363C28.6916 59.9786 29.3457 59.9999 30 60V60ZM24.15 0.570018C22.8525 0.828768 21.585 1.17002 20.355 1.58252L21.5587 5.13752C22.643 4.76869 23.7504 4.4718 24.8738 4.24877L24.1463 0.573768L24.15 0.570018ZM20.355 58.4138C21.585 58.8338 22.8525 59.1713 24.1462 59.4263L24.8737 55.7513C23.7412 55.5263 22.635 55.2263 21.5587 54.8625L20.355 58.4138V58.4138ZM16.725 3.09002C15.5521 3.6703 14.4184 4.3267 13.3313 5.05502L15.4162 8.16752C16.3689 7.53071 17.3623 6.95699 18.39 6.45002L16.7288 3.09002L16.725 3.09002ZM13.3312 54.945C14.415 55.6725 15.5475 56.3325 16.7287 56.91L18.39 53.55C17.3587 53.04 16.365 52.4625 15.4162 51.8288L13.3312 54.945V54.945ZM10.2188 7.44377C9.23625 8.30627 8.30625 9.23627 7.44375 10.2188L10.2638 12.6938C11.0202 11.8319 11.8319 11.0202 12.6938 10.2638L10.2188 7.44377V7.44377ZM7.44375 49.7813C8.30625 50.7638 9.23625 51.6938 10.2187 52.5563L12.6937 49.7363C11.8312 48.9825 11.0175 48.1688 10.2637 47.3063L7.44375 49.7813ZM3.09 43.275C3.67125 44.4525 4.3275 45.585 5.055 46.6688L8.1675 44.5838C7.53134 43.6307 6.95763 42.6373 6.45 41.61L3.09 43.2713L3.09 43.275ZM5.055 13.3313C4.3275 14.415 3.6675 15.5475 3.09 16.7288L6.45 18.39C6.95817 17.3622 7.53315 16.3689 8.17125 15.4163L5.055 13.3313V13.3313ZM1.58625 20.355C1.16625 21.585 0.828749 22.8525 0.573748 24.1463L4.24875 24.8738C4.47187 23.7504 4.76877 22.643 5.1375 21.5588L1.58625 20.355V20.355ZM0.57 35.85C0.823648 37.1359 1.16188 38.4037 1.5825 39.645L5.1375 38.4413C4.76878 37.357 4.47188 36.2496 4.24875 35.1263L0.573748 35.8538L0.57 35.85ZM0.0637495 28.0388C-0.0207612 29.3449 -0.0207613 30.6551 0.0637493 31.9613L3.80625 31.7213C3.73209 30.575 3.73209 29.4251 3.80625 28.2788L0.0637495 28.0388V28.0388ZM43.125 31.875C43.6223 31.875 44.0992 31.6775 44.4508 31.3258C44.8025 30.9742 45 30.4973 45 30C45 29.5027 44.8025 29.0258 44.4508 28.6742C44.0992 28.3226 43.6223 28.125 43.125 28.125L31.875 28.125L31.875 16.875C31.875 16.3777 31.6775 15.9008 31.3258 15.5492C30.9742 15.1976 30.4973 15 30 15C29.5027 15 29.0258 15.1976 28.6742 15.5492C28.3225 15.9008 28.125 16.3777 28.125 16.875L28.125 28.125L16.875 28.125C16.3777 28.125 15.9008 28.3226 15.5492 28.6742C15.1975 29.0258 15 29.5027 15 30C15 30.4973 15.1975 30.9742 15.5492 31.3258C15.9008 31.6775 16.3777 31.875 16.875 31.875L28.125 31.875L28.125 43.125C28.125 43.6223 28.3225 44.0992 28.6742 44.4508C29.0258 44.8025 29.5027 45 30 45C30.4973 45 30.9742 44.8025 31.3258 44.4508C31.6775 44.0992 31.875 43.6223 31.875 43.125L31.875 31.875L43.125 31.875Z" fill="#1E3A8A"/>
</svg>
